<svg width="24" height="24" viewBox="0 0 24 24" fill="none" xmlns="http://www.w3.org/2000/svg">
<g opacity="0.3">
<path d="M0 6.4C0 4.15979 0 3.03969 0.435974 2.18404C0.819467 1.43139 1.43139 0.819467 2.18404 0.435974C3.03969 0 4.15979 0 6.4 0H17.6C19.8402 0 20.9603 0 21.816 0.435974C22.5686 0.819467 23.1805 1.43139 23.564 2.18404C24 3.03969 24 4.15979 24 6.4V17.6C24 19.8402 24 20.9603 23.564 21.816C23.1805 22.5686 22.5686 23.1805 21.816 23.564C20.9603 24 19.8402 24 17.6 24H6.4C4.15979 24 3.03969 24 2.18404 23.564C1.43139 23.1805 0.819467 22.5686 0.435974 21.816C0 20.9603 0 19.8402 0 17.6V6.4Z" fill="#7242EB"/>
<g clip-path="url(#clip0_542_967)">
<path d="M9.95838 14.9296L17.1571 7.73085C17.281 7.60682 17.426 7.54349 17.5921 7.54085C17.7582 7.53821 17.9059 7.60154 18.0353 7.73085C18.1646 7.86016 18.2292 8.00863 18.2292 8.17627C18.2292 8.34405 18.1646 8.49259 18.0353 8.62189L10.4857 16.1844C10.335 16.3349 10.1592 16.4102 9.95838 16.4102C9.75755 16.4102 9.58178 16.3349 9.43109 16.1844L5.95192 12.7052C5.82803 12.5812 5.76692 12.434 5.76859 12.2636C5.77012 12.0933 5.83553 11.9435 5.96484 11.8142C6.09414 11.6849 6.24262 11.6202 6.41025 11.6202C6.57803 11.6202 6.72657 11.6849 6.85588 11.8142L9.95838 14.9296Z" fill="white"/>
</g>
</g>
<defs>
<clipPath id="clip0_542_967">
<rect width="20" height="20" fill="white" transform="translate(2 2)"/>
</clipPath>
</defs>
</svg>
