<svg width="33" height="32" viewBox="0 0 33 32" fill="none" xmlns="http://www.w3.org/2000/svg">
<g clip-path="url(#clip0_24_8762)">
<path d="M8.59998 25.3334H13.0616V18.6154C13.0616 18.2741 13.1771 17.9878 13.408 17.7567C13.6391 17.5258 13.9253 17.4104 14.2666 17.4104H18.9333C19.2746 17.4104 19.5609 17.5258 19.792 17.7567C20.0229 17.9878 20.1383 18.2741 20.1383 18.6154V25.3334H24.6V13.5384C24.6 13.4702 24.585 13.4083 24.555 13.3527C24.5252 13.2972 24.4846 13.248 24.4333 13.2051L16.8436 7.50007C16.7752 7.44029 16.694 7.4104 16.6 7.4104C16.506 7.4104 16.4248 7.44029 16.3563 7.50007L8.76664 13.2051C8.71531 13.248 8.67475 13.2972 8.64498 13.3527C8.61498 13.4083 8.59998 13.4702 8.59998 13.5384V25.3334ZM6.59998 25.3334V13.5384C6.59998 13.1568 6.68531 12.7954 6.85598 12.4541C7.02686 12.1125 7.26286 11.8313 7.56398 11.6104L15.154 5.8924C15.5751 5.57107 16.0564 5.4104 16.598 5.4104C17.1395 5.4104 17.6222 5.57107 18.046 5.8924L25.636 11.6104C25.9371 11.8313 26.1731 12.1125 26.344 12.4541C26.5146 12.7954 26.6 13.1568 26.6 13.5384V25.3334C26.6 25.8787 26.403 26.3484 26.009 26.7424C25.615 27.1364 25.1453 27.3334 24.6 27.3334H19.3436C19.0021 27.3334 18.7159 27.2178 18.485 26.9867C18.2539 26.7558 18.1383 26.4696 18.1383 26.1281V19.4104H15.0616V26.1281C15.0616 26.4696 14.9461 26.7558 14.715 26.9867C14.4841 27.2178 14.1979 27.3334 13.8563 27.3334H8.59998C8.05464 27.3334 7.58498 27.1364 7.19098 26.7424C6.79698 26.3484 6.59998 25.8787 6.59998 25.3334Z" fill="#1D2133" fill-opacity="0.4"/>
</g>
<defs>
<clipPath id="clip0_24_8762">
<rect width="32" height="32" fill="white" transform="translate(0.599976)"/>
</clipPath>
</defs>
</svg>
