<svg width="33" height="32" viewBox="0 0 33 32" fill="none" xmlns="http://www.w3.org/2000/svg">
<path d="M16.4 15.5897C15.1167 15.5897 14.0181 15.1328 13.1044 14.219C12.1904 13.305 11.7334 12.2063 11.7334 10.923C11.7334 9.63968 12.1904 8.54113 13.1044 7.62735C14.0181 6.71335 15.1167 6.25635 16.4 6.25635C17.6834 6.25635 18.7819 6.71335 19.6957 7.62735C20.6097 8.54113 21.0667 9.63968 21.0667 10.923C21.0667 12.2063 20.6097 13.305 19.6957 14.219C18.7819 15.1328 17.6834 15.5897 16.4 15.5897ZM6.40002 23.718V22.7793C6.40002 22.1265 6.57736 21.5218 6.93202 20.9653C7.28669 20.4089 7.76069 19.9811 8.35402 19.682C9.6718 19.036 11.0012 18.5515 12.3424 18.2283C13.6835 17.9052 15.036 17.7437 16.4 17.7437C17.764 17.7437 19.1166 17.9052 20.4577 18.2283C21.7988 18.5515 23.1282 19.036 24.446 19.682C25.0394 19.9811 25.5134 20.4089 25.868 20.9653C26.2227 21.5218 26.4 22.1265 26.4 22.7793V23.718C26.4 24.2802 26.203 24.7585 25.809 25.1527C25.415 25.5467 24.9368 25.7437 24.3744 25.7437H8.42569C7.86325 25.7437 7.38502 25.5467 6.99102 25.1527C6.59702 24.7585 6.40002 24.2802 6.40002 23.718ZM8.40002 23.7437H24.4V22.7793C24.4 22.5093 24.3218 22.2593 24.1654 22.0293C24.0089 21.7996 23.7966 21.612 23.5284 21.4667C22.3795 20.9009 21.2081 20.4722 20.0144 20.1807C18.8204 19.8893 17.6156 19.7437 16.4 19.7437C15.1845 19.7437 13.9797 19.8893 12.7857 20.1807C11.5919 20.4722 10.4206 20.9009 9.27169 21.4667C9.00347 21.612 8.79114 21.7996 8.63469 22.0293C8.47825 22.2593 8.40002 22.5093 8.40002 22.7793V23.7437ZM16.4 13.5897C17.1334 13.5897 17.7611 13.3286 18.2834 12.8063C18.8056 12.2841 19.0667 11.6563 19.0667 10.923C19.0667 10.1897 18.8056 9.5619 18.2834 9.03968C17.7611 8.51746 17.1334 8.25635 16.4 8.25635C15.6667 8.25635 15.0389 8.51746 14.5167 9.03968C13.9945 9.5619 13.7334 10.1897 13.7334 10.923C13.7334 11.6563 13.9945 12.2841 14.5167 12.8063C15.0389 13.3286 15.6667 13.5897 16.4 13.5897Z" fill="#1D2133" fill-opacity="0.4"/>
</svg>
