<svg width="16" height="16" viewBox="0 0 16 16" fill="none" xmlns="http://www.w3.org/2000/svg">
<path d="M13.7949 5.66662C14.112 5.66662 14.3921 5.78823 14.6352 6.03145C14.8785 6.27456 15.0001 6.55467 15.0001 6.87178V7.94862C15.0001 8.01784 14.9928 8.09262 14.9782 8.17295C14.9637 8.25328 14.9419 8.32812 14.9129 8.39745L13.0026 12.9051C12.9069 13.1188 12.7467 13.2991 12.5219 13.4461C12.2971 13.5931 12.0634 13.6666 11.8206 13.6666H6.42308C6.09064 13.6666 5.80669 13.5489 5.57125 13.3134C5.3358 13.0779 5.21808 12.7939 5.21808 12.4614V6.16528C5.21808 6.00462 5.25097 5.85017 5.31675 5.70195C5.38253 5.55362 5.47014 5.42473 5.57958 5.31528L9.10642 1.81145C9.23897 1.68589 9.39242 1.60856 9.56675 1.57945C9.74108 1.55045 9.90814 1.57651 10.0679 1.65762C10.2278 1.73884 10.3432 1.85806 10.4141 2.01528C10.4851 2.17262 10.4992 2.33973 10.4564 2.51662L9.73842 5.66662H13.7949ZM2.87191 13.6666C2.53947 13.6666 2.25547 13.5489 2.01991 13.3134C1.78447 13.0779 1.66675 12.7939 1.66675 12.4614V6.87178C1.66675 6.53934 1.78447 6.25534 2.01991 6.01978C2.25547 5.78434 2.53947 5.66662 2.87191 5.66662H3.01291C3.34536 5.66662 3.62936 5.78434 3.86491 6.01978C4.10036 6.25534 4.21808 6.53934 4.21808 6.87178V12.4679C4.21808 12.8004 4.10036 13.0833 3.86491 13.3166C3.62936 13.5499 3.34536 13.6666 3.01291 13.6666H2.87191Z" fill="#16B874"/>
</svg>
