<svg width="53" height="22" viewBox="0 0 53 22" fill="none" xmlns="http://www.w3.org/2000/svg">
<path d="M0 6.4C0 4.15979 0 3.03968 0.435974 2.18404C0.819467 1.43139 1.43139 0.819467 2.18404 0.435974C3.03968 0 4.15979 0 6.4 0H46.6C48.8402 0 49.9603 0 50.816 0.435974C51.5686 0.819467 52.1805 1.43139 52.564 2.18404C53 3.03968 53 4.15979 53 6.4V15.6C53 17.8402 53 18.9603 52.564 19.816C52.1805 20.5686 51.5686 21.1805 50.816 21.564C49.9603 22 48.8402 22 46.6 22H6.4C4.15979 22 3.03968 22 2.18404 21.564C1.43139 21.1805 0.819467 20.5686 0.435974 19.816C0 18.9603 0 17.8402 0 15.6V6.4Z" fill="#16B874" fill-opacity="0.08"/>
<g clip-path="url(#clip0_47_2772)">
<path d="M19.7949 8.66662C20.112 8.66662 20.3921 8.78823 20.6352 9.03145C20.8785 9.27456 21.0001 9.55467 21.0001 9.87178V10.9486C21.0001 11.0178 20.9928 11.0926 20.9782 11.1729C20.9637 11.2533 20.9419 11.3281 20.9129 11.3974L19.0026 15.9051C18.9069 16.1188 18.7467 16.2991 18.5219 16.4461C18.2971 16.5931 18.0634 16.6666 17.8206 16.6666H12.4231C12.0906 16.6666 11.8067 16.5489 11.5712 16.3134C11.3358 16.0779 11.2181 15.7939 11.2181 15.4614V9.16528C11.2181 9.00462 11.251 8.85017 11.3167 8.70195C11.3825 8.55362 11.4701 8.42473 11.5796 8.31528L15.1064 4.81145C15.239 4.68589 15.3924 4.60856 15.5667 4.57945C15.7411 4.55045 15.9081 4.57651 16.0679 4.65762C16.2278 4.73884 16.3432 4.85806 16.4141 5.01528C16.4851 5.17262 16.4992 5.33973 16.4564 5.51662L15.7384 8.66662H19.7949ZM8.87191 16.6666C8.53947 16.6666 8.25547 16.5489 8.01991 16.3134C7.78447 16.0779 7.66675 15.7939 7.66675 15.4614V9.87178C7.66675 9.53934 7.78447 9.25534 8.01991 9.01978C8.25547 8.78434 8.53947 8.66662 8.87191 8.66662H9.01291C9.34536 8.66662 9.62936 8.78434 9.86491 9.01978C10.1004 9.25534 10.2181 9.53934 10.2181 9.87178V15.4679C10.2181 15.8004 10.1004 16.0833 9.86491 16.3166C9.62936 16.5499 9.34536 16.6666 9.01291 16.6666H8.87191Z" fill="#16B874"/>
</g>
<path d="M31.8797 12.072V15.924H30.8357V12.072H31.8797ZM36.1397 11.712V12.576H26.5877V11.712H36.1397ZM31.7477 7.176V7.44C31.7477 8.024 31.5597 8.564 31.1837 9.06C30.8077 9.556 30.2997 9.968 29.6597 10.296C29.0197 10.624 28.3157 10.844 27.5477 10.956L27.1757 10.128C27.8237 10.04 28.4277 9.864 28.9877 9.6C29.5557 9.336 30.0037 9.012 30.3317 8.628C30.6677 8.244 30.8357 7.848 30.8357 7.44V7.176H31.7477ZM31.8797 7.176V7.44C31.8797 7.84 32.0437 8.232 32.3717 8.616C32.7077 9 33.1557 9.328 33.7157 9.6C34.2757 9.864 34.8797 10.04 35.5277 10.128L35.1557 10.956C34.3877 10.844 33.6837 10.624 33.0437 10.296C32.4117 9.96 31.9077 9.544 31.5317 9.048C31.1557 8.552 30.9677 8.016 30.9677 7.44V7.176H31.8797ZM35.2157 6.636V7.476H27.4997V6.636H35.2157ZM31.8797 5.352V6.924H30.8357V5.352H31.8797ZM40.28 7.344V7.848C40.28 8.8 40.016 9.644 39.488 10.38C38.968 11.116 38.256 11.644 37.352 11.964L36.836 11.148C37.356 10.972 37.812 10.716 38.204 10.38C38.604 10.044 38.908 9.66 39.116 9.228C39.332 8.796 39.44 8.336 39.44 7.848V7.344H40.28ZM40.46 7.344V7.848C40.46 8.304 40.568 8.74 40.784 9.156C41 9.564 41.304 9.928 41.696 10.248C42.096 10.56 42.556 10.796 43.076 10.956L42.572 11.772C41.972 11.58 41.448 11.292 41 10.908C40.56 10.524 40.216 10.068 39.968 9.54C39.728 9.012 39.608 8.448 39.608 7.848V7.344H40.46ZM42.764 6.744V7.56H37.124V6.744H42.764ZM40.46 5.424V7.044H39.44V5.424H40.46ZM45.044 8.568V9.432H42.404V8.568H45.044ZM45.536 5.352V13.224H44.492V5.352H45.536ZM45.824 14.832V15.672H38.756V14.832H45.824ZM39.8 12.528V15.3H38.756V12.528H39.8Z" fill="#16B874"/>
<defs>
<clipPath id="clip0_47_2772">
<rect width="16" height="16" fill="white" transform="translate(6 3)"/>
</clipPath>
</defs>
</svg>
