<svg width="33" height="32" viewBox="0 0 33 32" fill="none" xmlns="http://www.w3.org/2000/svg">
<path d="M16.518 26.6282C16.6495 26.6282 16.7833 26.5974 16.9193 26.5359C17.0551 26.4743 17.1623 26.4042 17.241 26.3256L27.905 15.6616C28.2059 15.3607 28.4324 15.0392 28.5846 14.6972C28.7366 14.3554 28.8126 13.9966 28.8126 13.6206C28.8126 13.2308 28.7366 12.8556 28.5846 12.4949C28.4324 12.134 28.2059 11.81 27.905 11.5229L22.5717 6.18956C22.2845 5.88867 21.9734 5.66856 21.6383 5.52922C21.3034 5.39011 20.9411 5.32056 20.5513 5.32056C20.1753 5.32056 19.8142 5.39011 19.468 5.52922C19.1218 5.66856 18.8025 5.88867 18.5103 6.18956L17.746 6.95389L20.2126 9.44089C20.5118 9.72644 20.7328 10.0521 20.8756 10.4179C21.0183 10.7837 21.0896 11.1631 21.0896 11.5562C21.0896 12.37 20.8179 13.0487 20.2743 13.5922C19.7308 14.1358 19.0521 14.4076 18.2383 14.4076C17.8452 14.4076 17.4644 14.3426 17.096 14.2126C16.7278 14.0828 16.4009 13.8751 16.1153 13.5896L13.8847 11.3796C13.8078 11.3024 13.7094 11.2639 13.5896 11.2639C13.4701 11.2639 13.3719 11.3024 13.295 11.3796L7.79498 16.8792C7.69409 16.9801 7.61843 17.093 7.56798 17.2179C7.51754 17.3426 7.49232 17.4708 7.49232 17.6026C7.49232 17.8486 7.57609 18.0588 7.74365 18.2332C7.91121 18.4077 8.11798 18.4949 8.36398 18.4949C8.49576 18.4949 8.62954 18.4641 8.76532 18.4026C8.90132 18.341 9.00865 18.2709 9.08732 18.1922L12.764 14.5152C12.9487 14.3306 13.1773 14.2327 13.45 14.2216C13.7226 14.2104 13.9624 14.3083 14.1693 14.5152C14.3624 14.7083 14.459 14.9426 14.459 15.2179C14.459 15.493 14.3624 15.7271 14.1693 15.9202L10.5126 19.5972C10.412 19.6981 10.3364 19.811 10.286 19.9359C10.2355 20.0606 10.2103 20.1888 10.2103 20.3206C10.2103 20.5581 10.2962 20.7628 10.468 20.9346C10.6398 21.1063 10.8444 21.1922 11.082 21.1922C11.2138 21.1922 11.3475 21.1614 11.4833 21.0999C11.6193 21.0383 11.7265 20.9682 11.805 20.8896L15.636 17.0792C15.8206 16.8948 16.0492 16.797 16.3216 16.7859C16.5943 16.7748 16.8341 16.8726 17.041 17.0792C17.2341 17.2726 17.3307 17.5068 17.3307 17.7819C17.3307 18.057 17.2341 18.2912 17.041 18.4846L13.2306 22.3152C13.1384 22.3939 13.065 22.5011 13.0103 22.6369C12.9556 22.7729 12.9283 22.9067 12.9283 23.0382C12.9283 23.276 13.0142 23.4808 13.186 23.6526C13.3578 23.8243 13.5624 23.9102 13.8 23.9102C13.9315 23.9102 14.0598 23.885 14.1846 23.8346C14.3093 23.7841 14.4221 23.7084 14.523 23.6076L18.354 19.7972C18.5384 19.6126 18.767 19.5147 19.0397 19.5036C19.3123 19.4924 19.5521 19.5903 19.759 19.7972C19.9521 19.9903 20.0486 20.2246 20.0486 20.4999C20.0486 20.775 19.9521 21.0092 19.759 21.2026L15.9283 25.0332C15.8274 25.1341 15.7518 25.2512 15.7013 25.3846C15.6509 25.5179 15.6256 25.6461 15.6256 25.7692C15.6256 26.0152 15.7171 26.2199 15.9 26.3832C16.0829 26.5466 16.2889 26.6282 16.518 26.6282ZM16.4973 28.6279C15.7435 28.6279 15.0863 28.3664 14.5256 27.8436C13.965 27.3204 13.6719 26.6691 13.6463 25.8896C12.8908 25.8382 12.2595 25.5699 11.7526 25.0846C11.2458 24.599 10.971 23.9613 10.9283 23.1716C10.1385 23.1204 9.50009 22.8444 9.01298 22.3436C8.52565 21.8427 8.26487 21.2127 8.23065 20.4536C7.43754 20.4024 6.78287 20.1149 6.26665 19.5909C5.75043 19.0669 5.49232 18.4041 5.49232 17.6026C5.49232 17.2094 5.56709 16.8243 5.71665 16.4472C5.86621 16.0703 6.08376 15.7392 6.36932 15.4539L11.882 9.94089C12.3418 9.48111 12.9075 9.25122 13.5793 9.25122C14.2513 9.25122 14.8172 9.48111 15.277 9.94089L17.495 12.1589C17.5734 12.2511 17.6763 12.3247 17.8036 12.3796C17.9312 12.4342 18.0693 12.4616 18.218 12.4616C18.4606 12.4616 18.67 12.3812 18.846 12.2206C19.0222 12.0599 19.1103 11.8496 19.1103 11.5896C19.1103 11.4409 19.083 11.3029 19.0283 11.1756C18.9734 11.0482 18.8999 10.9452 18.8076 10.8666L14.1307 6.18956C13.8435 5.88867 13.5303 5.66856 13.191 5.52922C12.8517 5.39011 12.4871 5.32056 12.0973 5.32056C11.7213 5.32056 11.3645 5.39011 11.027 5.52922C10.6892 5.66856 10.37 5.88867 10.0693 6.18956L5.68965 10.5896C5.30165 10.9776 5.04098 11.4447 4.90765 11.9909C4.77432 12.5371 4.78798 13.0683 4.94865 13.5846C5.00687 13.8597 4.95687 14.1097 4.79865 14.3346C4.64065 14.5592 4.42398 14.6938 4.14865 14.7382C3.87354 14.7827 3.62143 14.7293 3.39232 14.5782C3.1632 14.4269 3.02643 14.2136 2.98198 13.9382C2.77176 13.0853 2.77098 12.2362 2.97965 11.3909C3.18809 10.5456 3.6162 9.799 4.26398 9.15122L8.63065 4.78456C9.12998 4.299 9.67321 3.93367 10.2603 3.68856C10.8474 3.44322 11.4641 3.32056 12.1103 3.32056C12.7563 3.32056 13.3708 3.44322 13.9536 3.68856C14.5368 3.93367 15.071 4.299 15.5563 4.78456L16.3206 5.54856L17.0846 4.78456C17.5838 4.299 18.1248 3.93367 18.7076 3.68856C19.2905 3.44322 19.9051 3.32056 20.5513 3.32056C21.1975 3.32056 21.8142 3.44322 22.4013 3.68856C22.9884 3.93367 23.5248 4.299 24.0103 4.78456L29.3103 10.0846C29.7956 10.5701 30.1674 11.1227 30.4256 11.7422C30.6836 12.3618 30.8126 12.9947 30.8126 13.6409C30.8126 14.2871 30.6836 14.9017 30.4256 15.4846C30.1674 16.0674 29.7956 16.6016 29.3103 17.0869L18.646 27.7306C18.352 28.0246 18.0209 28.2477 17.6526 28.3999C17.2842 28.5519 16.8991 28.6279 16.4973 28.6279Z" fill="#1D2133" fill-opacity="0.4"/>
</svg>
