<svg width="40" height="40" viewBox="0 0 40 40" fill="none" xmlns="http://www.w3.org/2000/svg">
<g clip-path="url(#clip0_87_1398)">
<path fill-rule="evenodd" clip-rule="evenodd" d="M6.5 36.9999C6.5 38.6568 7.84315 39.9999 9.5 39.9999H13.007C13.0803 39.9987 13.152 39.9772 13.214 39.9379L14.4427 39.1597C14.9142 38.8612 15.5284 38.8612 15.9998 39.1597L17.2285 39.9379C17.2906 39.9772 17.3622 39.9987 17.4356 39.9999H30.5C32.1569 39.9999 33.5 38.6568 33.5 36.9999V2.99994C33.5 1.34309 32.1569 -6.10352e-05 30.5 -6.10352e-05H9.5C7.84315 -6.10352e-05 6.5 1.34309 6.5 2.99994L6.5 36.9999Z" fill="#0064FF"/>
<path d="M20.8765 16.0285L21.5434 12.988C21.5734 12.8353 21.4385 12.697 21.2812 12.7334C20.3145 12.9008 19.3106 13.1916 18.3141 13.6064C13.8333 15.4467 11.1209 19.0546 12.2598 21.666C13.1215 23.6227 15.9013 24.4593 19.1306 23.9718L18.4637 27.0123C18.4337 27.165 18.5686 27.3033 18.7259 27.2669C19.6925 27.0995 20.6965 26.8087 21.693 26.3939C26.1736 24.5536 28.8785 20.9457 27.7396 18.327C26.8855 16.3776 24.1056 15.5411 20.8762 16.0283L20.8765 16.0285Z" fill="white"/>
</g>
<defs>
<clipPath id="clip0_87_1398">
<rect width="40" height="40" fill="white"/>
</clipPath>
</defs>
</svg>
