<svg width="32" height="32" viewBox="0 0 32 32" fill="none" xmlns="http://www.w3.org/2000/svg">
<path d="M6.76398 27.6666C6.09064 27.6666 5.52064 27.4333 5.05398 26.9666C4.58731 26.4999 4.35398 25.9298 4.35398 25.2563V14.6049C3.81709 14.164 3.41409 13.5918 3.14498 12.8883C2.87564 12.1849 2.87009 11.4256 3.12831 10.6103L4.47698 6.20492C4.65475 5.64425 4.95642 5.19214 5.38198 4.84859C5.80775 4.50503 6.31631 4.33325 6.90764 4.33325H25.1076C25.6992 4.33325 26.2043 4.49736 26.623 4.82559C27.0419 5.15381 27.347 5.60514 27.5383 6.17959L28.9126 10.6103C29.1709 11.4256 29.1653 12.1824 28.896 12.8806C28.6269 13.579 28.2239 14.1624 27.687 14.6306V25.2563C27.687 25.9298 27.4536 26.4999 26.987 26.9666C26.5203 27.4333 25.9503 27.6666 25.277 27.6666H6.76398ZM18.954 13.6666C19.6822 13.6666 20.2296 13.4439 20.5963 12.9986C20.963 12.5533 21.113 12.075 21.0463 11.5639L20.236 6.33325H17.0203V11.5999C17.0203 12.1606 17.2101 12.6453 17.5896 13.0539C17.9692 13.4624 18.424 13.6666 18.954 13.6666ZM12.954 13.6666C13.5675 13.6666 14.0653 13.4624 14.4473 13.0539C14.8295 12.6453 15.0206 12.1606 15.0206 11.5999V6.33325H11.805L10.995 11.6153C10.923 12.0888 11.0716 12.5491 11.441 12.9963C11.8103 13.4431 12.3146 13.6666 12.954 13.6666ZM7.02064 13.6666C7.51464 13.6666 7.93942 13.4944 8.29498 13.1499C8.65053 12.8055 8.8702 12.3726 8.95398 11.8513L9.73831 6.33325H6.90764C6.76231 6.33325 6.64698 6.36525 6.56164 6.42925C6.47609 6.49347 6.41198 6.5897 6.36931 6.71792L5.08698 11.0563C4.91098 11.6289 4.99398 12.2071 5.33598 12.7909C5.67775 13.3747 6.23931 13.6666 7.02064 13.6666ZM25.0206 13.6666C25.742 13.6666 26.2941 13.3833 26.677 12.8166C27.0599 12.2499 27.1522 11.6631 26.954 11.0563L25.605 6.69225C25.5623 6.56403 25.4983 6.47214 25.413 6.41659C25.3274 6.36103 25.212 6.33325 25.0666 6.33325H22.3026L23.087 11.8513C23.1708 12.3726 23.3904 12.8055 23.746 13.1499C24.1015 13.4944 24.5264 13.6666 25.0206 13.6666Z" fill="#1D2133"/>
</svg>
