<svg width="33" height="32" viewBox="0 0 33 32" fill="none" xmlns="http://www.w3.org/2000/svg">
<path d="M8.47166 27.3333C7.98632 27.3333 7.52399 27.1683 7.08466 26.8383C6.64532 26.5085 6.35644 26.105 6.21799 25.6279C5.66244 23.7101 5.21332 22.085 4.87066 20.7526C4.52777 19.4199 4.25721 18.2711 4.05899 17.3063C3.86077 16.3414 3.72355 15.4995 3.64733 14.7806C3.57133 14.0619 3.53333 13.3573 3.53333 12.6666C3.53333 10.8101 4.18032 9.23492 5.47432 7.94092C6.76832 6.64692 8.34355 5.99992 10.2 5.99992H17.2C17.8 5.19992 18.5333 4.55547 19.4 4.06659C20.2667 3.5777 21.2 3.33325 22.2 3.33325C22.5675 3.33325 22.8817 3.46358 23.1423 3.72425C23.403 3.98492 23.5333 4.29903 23.5333 4.66659C23.5333 4.75725 23.5209 4.8457 23.496 4.93192C23.4713 5.01836 23.4453 5.10425 23.418 5.18959C23.3204 5.45114 23.2264 5.73403 23.136 6.03825C23.0453 6.3427 22.9607 6.72903 22.882 7.19725L26.3513 10.6666H27.6613C28.0051 10.6666 28.2919 10.7816 28.5217 11.0116C28.7517 11.2414 28.8667 11.5281 28.8667 11.8719V17.9359C28.8667 18.199 28.7919 18.4331 28.6423 18.6383C28.4928 18.8434 28.2863 18.9929 28.023 19.0869L25.228 20.0076L23.5487 25.6126C23.388 26.1393 23.0957 26.5577 22.6717 26.8679C22.2479 27.1781 21.7659 27.3333 21.2257 27.3333H19.277C18.6121 27.3333 18.0441 27.0978 17.573 26.6269C17.1021 26.1558 16.8667 25.5878 16.8667 24.9229V24.6666H12.8667V24.9229C12.8667 25.5878 12.6312 26.1558 12.1603 26.6269C11.6892 27.0978 11.1212 27.3333 10.4563 27.3333H8.47166ZM8.53332 25.3333H10.4563C10.5761 25.3333 10.6744 25.2948 10.7513 25.2179C10.8282 25.141 10.8667 25.0427 10.8667 24.9229V22.6666H18.8667V24.9229C18.8667 25.0427 18.9051 25.141 18.982 25.2179C19.0589 25.2948 19.1572 25.3333 19.277 25.3333H21.2257C21.3197 25.3333 21.403 25.3076 21.4757 25.2563C21.5483 25.2049 21.5974 25.1323 21.623 25.0383L23.6 18.4666L26.8667 17.3666V12.6666H25.5333L20.8667 7.99992C20.8667 7.58103 20.8965 7.15192 20.9563 6.71259C21.0161 6.27347 21.1059 5.86236 21.2257 5.47925C20.6068 5.64859 20.0465 5.96059 19.545 6.41525C19.0432 6.86992 18.6727 7.39814 18.4333 7.99992H10.2C8.9111 7.99992 7.8111 8.45547 6.89999 9.36659C5.98888 10.2777 5.53333 11.3777 5.53333 12.6666C5.53333 13.5606 5.7581 15.0833 6.20766 17.2346C6.65721 19.3859 7.29144 21.9786 8.11032 25.0126C8.13588 25.1066 8.18932 25.1836 8.27066 25.2436C8.35177 25.3034 8.43932 25.3333 8.53332 25.3333ZM21.5333 14.5126C21.8598 14.5126 22.138 14.3977 22.368 14.1679C22.5978 13.9379 22.7127 13.6597 22.7127 13.3333C22.7127 13.0068 22.5978 12.7286 22.368 12.4986C22.138 12.2688 21.8598 12.1539 21.5333 12.1539C21.2069 12.1539 20.9287 12.2688 20.6987 12.4986C20.4689 12.7286 20.354 13.0068 20.354 13.3333C20.354 13.6597 20.4689 13.9379 20.6987 14.1679C20.9287 14.3977 21.2069 14.5126 21.5333 14.5126ZM16.5333 11.6666C16.8171 11.6666 17.0547 11.5708 17.246 11.3793C17.4375 11.1879 17.5333 10.9504 17.5333 10.6666C17.5333 10.3828 17.4375 10.1453 17.246 9.95392C17.0547 9.76236 16.8171 9.66659 16.5333 9.66659H11.8667C11.5829 9.66659 11.3453 9.76236 11.154 9.95392C10.9624 10.1453 10.8667 10.3828 10.8667 10.6666C10.8667 10.9504 10.9624 11.1879 11.154 11.3793C11.3453 11.5708 11.5829 11.6666 11.8667 11.6666H16.5333Z" fill="#1D2133" fill-opacity="0.4"/>
</svg>
